<svg version="1.1" id="Layer_1" xmlns="http://www.w3.org/2000/svg" xmlns:xlink="http://www.w3.org/1999/xlink" x="0px" y="0px"
	 width="100%" viewBox="0 0 500 500" enable-background="new 0 0 500 500" xml:space="preserve">
<path fill="#000000" opacity="1.000000" stroke="none" 
	d="
M345.000000,501.000000 
	C230.000031,501.000000 115.500053,501.000000 1.000062,501.000000 
	C1.000041,334.333405 1.000041,167.666794 1.000021,1.000151 
	C167.666550,1.000101 334.333099,1.000101 500.999756,1.000050 
	C500.999817,167.666519 500.999817,334.333038 500.999908,500.999786 
	C449.166656,501.000000 397.333344,501.000000 345.000000,501.000000 
M226.952438,186.963196 
	C226.952438,186.963196 226.965790,187.023849 227.548584,186.792847 
	C228.099014,186.170319 228.649445,185.547775 229.670105,184.746780 
	C230.085449,184.234650 230.500809,183.722534 231.537827,182.878662 
	C236.341110,178.143326 241.210083,173.471878 245.912125,168.638062 
	C247.563049,166.940872 248.804153,164.845032 250.760361,162.645737 
	C251.529816,161.740616 252.299271,160.835495 253.647110,159.711166 
	C254.757751,158.488617 255.868378,157.266068 257.048523,156.045609 
	C257.048523,156.045609 257.048492,155.976059 257.601837,155.776352 
	C258.096527,155.172836 258.591217,154.569321 259.658600,153.728363 
	C260.760071,152.514786 261.861542,151.301224 263.586914,149.804932 
	C268.748474,144.552994 273.910034,139.301041 279.010925,134.012955 
	C279.010925,134.012955 279.050049,134.071716 279.676544,133.843781 
	C281.839752,131.583084 284.002991,129.322388 286.812256,126.629074 
	C288.394409,123.334709 285.679413,124.047165 284.217560,124.044510 
	C274.632416,124.027054 265.047119,124.123009 254.968262,124.528954 
	C246.212891,133.627121 237.480896,142.747925 228.696503,151.817993 
	C216.564880,164.344131 204.406174,176.844101 192.236237,189.333038 
	C178.991058,202.925369 165.730209,216.502457 152.455017,230.065475 
	C146.652954,235.993332 140.798187,241.869614 134.771240,247.967697 
	C136.000977,249.296280 137.084976,250.515640 138.219833,251.685669 
	C145.814270,259.515686 153.430801,267.324249 161.018890,275.160400 
	C175.546661,290.163239 189.994995,305.243744 204.603516,320.167450 
	C213.811447,329.574066 223.296570,338.708710 232.571655,348.050446 
	C240.724396,356.261841 248.757874,364.591644 257.192047,373.714722 
	C268.326080,373.714722 279.460114,373.714722 290.660889,373.714722 
	C289.889038,372.816528 289.361328,372.202454 288.593201,371.019684 
	C275.383301,357.464722 262.176147,343.907135 248.962753,330.355560 
	C235.743179,316.797638 222.580002,303.183929 209.274399,289.710876 
	C198.735657,279.039551 187.961121,268.601105 177.417053,257.934937 
	C174.336578,254.818787 171.687256,251.276413 168.530823,247.565552 
	C186.199387,229.208603 203.614990,211.114471 221.629257,192.765823 
	C223.104630,191.176712 224.580002,189.587601 225.985962,187.989746 
	C225.985962,187.989746 225.978561,188.059311 226.494354,187.882675 
	C226.667740,187.576721 226.841141,187.270767 226.952438,186.963196 
M337.277252,366.294373 
	C337.277252,366.294373 337.210083,366.516815 336.713013,366.889374 
	C335.233978,368.588806 333.754974,370.288269 331.421509,372.132080 
	C332.264435,372.751068 333.099762,373.895905 333.951477,373.908264 
	C343.159241,374.041870 352.369720,374.021667 361.578918,373.958954 
	C362.386383,373.953461 363.189789,373.349945 364.598907,372.790314 
	C365.781738,371.528900 366.964569,370.267487 368.737366,368.720917 
	C380.056183,357.057281 391.359741,345.378815 402.697662,333.733765 
	C416.357452,319.703918 430.048218,305.704285 443.722168,291.688202 
	C456.348389,278.746063 468.961151,265.790802 481.603027,252.863968 
	C483.583618,250.838699 485.266998,249.010971 482.681091,246.142197 
	C478.060272,241.016006 473.849701,235.505539 469.063721,230.545441 
	C454.085785,215.022583 438.945770,199.655609 423.813751,184.282181 
	C417.276733,177.640854 410.556091,171.180450 404.005432,164.552353 
	C391.177521,151.572876 378.410370,138.533356 365.897552,124.606216 
	C355.114441,124.606216 344.331360,124.606216 332.801178,124.606216 
	C334.083923,125.358337 334.747223,125.747261 335.556152,126.742912 
	C341.165680,132.824722 346.666412,139.011429 352.406921,144.967026 
	C365.198669,158.238098 378.068146,171.435028 390.982910,184.586578 
	C410.202148,204.158112 429.475677,223.676437 448.771027,243.172943 
	C450.155823,244.572189 451.907440,245.608337 453.398499,246.744690 
	C444.076233,256.565735 435.582764,265.665558 426.922333,274.603577 
	C412.274750,289.720581 397.577789,304.790680 382.793030,319.773407 
	C372.963287,329.734802 362.922516,339.487701 353.039093,349.396667 
	C351.817413,350.621490 350.983765,352.233368 349.458527,354.051178 
	C348.944550,354.707031 348.430542,355.362915 347.327271,356.297974 
	C345.222107,358.483521 343.116913,360.669067 340.441681,363.109497 
	C339.460175,364.146118 338.478668,365.182739 337.277252,366.294373 
M16.318867,410.299927 
	C15.542857,412.656647 16.723324,413.063416 18.783215,413.035339 
	C25.069647,412.949646 31.358543,413.041534 37.644791,412.949280 
	C38.345585,412.938995 39.035545,412.190674 39.966198,411.057312 
	C42.825863,400.623199 45.705082,390.194397 48.541092,379.753845 
	C54.341618,358.399780 60.172211,337.053680 65.890640,315.677582 
	C71.483665,294.770233 76.902550,273.816315 82.488594,252.907059 
	C89.593246,226.313461 96.781502,199.742172 103.948128,173.165161 
	C109.836983,151.326706 115.775024,129.501480 121.629051,107.653717 
	C123.227921,101.686600 124.602486,95.659393 126.169243,89.297318 
	C118.004814,89.297318 110.388924,89.297318 102.759590,89.297318 
	C101.495232,93.256607 100.105591,97.055450 99.066414,100.947861 
	C88.815742,139.343719 78.637238,177.758850 68.409805,216.160934 
	C60.295662,246.628082 52.177181,277.094116 43.995224,307.543121 
	C36.471348,335.542999 28.816187,363.507660 21.322020,391.515442 
	C19.688847,397.619049 18.493898,403.839966 16.318867,410.299927 
z"/>
<path fill="#0877BD" opacity="1.000000" stroke="none" 
	d="
M365.618073,125.518677 
	C378.410370,138.533356 391.177521,151.572876 404.005432,164.552353 
	C410.556091,171.180450 417.276733,177.640854 423.813751,184.282181 
	C438.945770,199.655609 454.085785,215.022583 469.063721,230.545441 
	C473.849701,235.505539 478.060272,241.016006 482.681091,246.142197 
	C485.266998,249.010971 483.583618,250.838699 481.603027,252.863968 
	C468.961151,265.790802 456.348389,278.746063 443.722168,291.688202 
	C430.048218,305.704285 416.357452,319.703918 402.697662,333.733765 
	C391.359741,345.378815 380.056183,357.057281 368.060089,368.910126 
	C362.750977,372.251831 357.518280,372.105988 352.222351,372.102234 
	C347.144287,372.098663 342.065857,372.578613 336.734039,372.897949 
	C336.311432,372.915283 336.142365,372.880676 335.924866,372.570496 
	C336.320984,370.368896 336.765533,368.442841 337.210083,366.516815 
	C337.210083,366.516815 337.277252,366.294373 337.737061,366.277161 
	C339.135162,365.124817 340.073456,363.989716 341.011719,362.854614 
	C343.116913,360.669067 345.222107,358.483521 347.896301,356.121399 
	C348.967010,355.185181 349.468658,354.425537 349.970306,353.665894 
	C350.983765,352.233368 351.817413,350.621490 353.039093,349.396667 
	C362.922516,339.487701 372.963287,329.734802 382.793030,319.773407 
	C397.577789,304.790680 412.274750,289.720581 426.922333,274.603577 
	C435.582764,265.665558 444.076233,256.565735 453.398499,246.744690 
	C451.907440,245.608337 450.155823,244.572189 448.771027,243.172943 
	C429.475677,223.676437 410.202148,204.158112 390.982910,184.586578 
	C378.068146,171.435028 365.198669,158.238098 352.406921,144.967026 
	C346.666412,139.011429 341.165680,132.824722 335.727692,126.124336 
	C345.805511,125.510063 355.711792,125.514366 365.618073,125.518677 
z"/>
<path fill="#0877BD" opacity="1.000000" stroke="none" 
	d="
M253.068726,159.930359 
	C252.299271,160.835495 251.529816,161.740616 250.143127,162.863586 
	C244.887543,167.314240 240.081573,171.382233 235.686096,175.853806 
	C233.678818,177.895813 232.481064,180.733566 230.916168,183.210419 
	C230.500809,183.722534 230.085449,184.234650 229.136780,184.955963 
	C228.057571,185.784714 227.511673,186.404282 226.965790,187.023849 
	C226.965790,187.023849 226.952438,186.963196 226.787247,187.123535 
	C226.407562,187.542343 226.193054,187.800827 225.978546,188.059311 
	C225.978561,188.059311 225.985962,187.989746 225.654633,188.032715 
	C223.892426,189.723892 222.461517,191.372116 221.030609,193.020325 
	C203.614990,211.114471 186.199387,229.208603 168.530823,247.565552 
	C171.687256,251.276413 174.336578,254.818787 177.417053,257.934937 
	C187.961121,268.601105 198.735657,279.039551 209.274399,289.710876 
	C222.580002,303.183929 235.743179,316.797638 248.962753,330.355560 
	C262.176147,343.907135 275.383301,357.464722 288.651764,371.773163 
	C278.088226,372.640808 267.466125,372.755005 256.844025,372.869171 
	C248.757874,364.591644 240.724396,356.261841 232.571655,348.050446 
	C223.296570,338.708710 213.811447,329.574066 204.603516,320.167450 
	C189.994995,305.243744 175.546661,290.163239 161.018890,275.160400 
	C153.430801,267.324249 145.814270,259.515686 138.219833,251.685669 
	C137.084976,250.515640 136.000977,249.296280 134.771240,247.967697 
	C140.798187,241.869614 146.652954,235.993332 152.455017,230.065475 
	C165.730209,216.502457 178.991058,202.925369 192.236237,189.333038 
	C204.406174,176.844101 216.564880,164.344131 228.696503,151.817993 
	C237.480896,142.747925 246.212891,133.627121 255.577393,124.637527 
	C265.091949,124.859940 273.997406,124.973778 282.887329,125.442398 
	C281.597900,128.555344 280.323975,131.313538 279.050049,134.071716 
	C279.050049,134.071716 279.010925,134.012955 278.682007,134.040955 
	C271.651062,137.898224 265.951477,142.690567 262.963043,150.087662 
	C261.861542,151.301224 260.760071,152.514786 259.107635,153.982239 
	C258.053955,154.816086 257.551208,155.396072 257.048492,155.976059 
	C257.048492,155.976059 257.048523,156.045609 256.675415,156.104858 
	C255.224426,157.419525 254.146576,158.674942 253.068726,159.930359 
z"/>
<path fill="#0676BD" opacity="1.000000" stroke="none" 
	d="
M17.097122,410.006836 
	C18.493898,403.839966 19.688847,397.619049 21.322020,391.515442 
	C28.816187,363.507660 36.471348,335.542999 43.995224,307.543121 
	C52.177181,277.094116 60.295662,246.628082 68.409805,216.160934 
	C78.637238,177.758850 88.815742,139.343719 99.066414,100.947861 
	C100.105591,97.055450 101.495232,93.256607 102.759590,89.297318 
	C110.388924,89.297318 118.004814,89.297318 126.169243,89.297318 
	C124.602486,95.659393 123.227921,101.686600 121.629051,107.653717 
	C115.775024,129.501480 109.836983,151.326706 103.948128,173.165161 
	C96.781502,199.742172 89.593246,226.313461 82.488594,252.907059 
	C76.902550,273.816315 71.483665,294.770233 65.890640,315.677582 
	C60.172211,337.053680 54.341618,358.399780 48.541092,379.753845 
	C45.705082,390.194397 42.825863,400.623199 39.402260,411.483215 
	C32.852322,411.935944 26.862936,412.076599 20.883028,411.898773 
	C19.603437,411.860718 18.358192,410.667755 17.097122,410.006836 
z"/>
<path fill="#2F7DAE" opacity="1.000000" stroke="none" 
	d="
M231.226990,183.044540 
	C232.481064,180.733566 233.678818,177.895813 235.686096,175.853806 
	C240.081573,171.382233 244.887543,167.314240 249.879120,163.006317 
	C248.804153,164.845032 247.563049,166.940872 245.912125,168.638062 
	C241.210083,173.471878 236.341110,178.143326 231.226990,183.044540 
z"/>
<path fill="#2F7DAE" opacity="1.000000" stroke="none" 
	d="
M263.274963,149.946289 
	C265.951477,142.690567 271.651062,137.898224 278.712311,134.059021 
	C273.910034,139.301041 268.748474,144.552994 263.274963,149.946289 
z"/>
<path fill="#1B70A6" opacity="1.000000" stroke="none" 
	d="
M336.987610,372.846069 
	C342.065857,372.578613 347.144287,372.098663 352.222351,372.102234 
	C357.518280,372.105988 362.750977,372.251831 367.765106,369.052673 
	C366.964569,370.267487 365.781738,371.528900 363.828735,372.894470 
	C354.368225,372.947754 345.677917,372.896912 336.987610,372.846069 
z"/>
<path fill="#BCE3F8" opacity="1.000000" stroke="none" 
	d="
M257.018036,373.291931 
	C267.466125,372.755005 278.088226,372.640808 288.771973,372.057495 
	C289.361328,372.202454 289.889038,372.816528 290.660889,373.714722 
	C279.460114,373.714722 268.326080,373.714722 257.018036,373.291931 
z"/>
<path fill="#7EB1D2" opacity="1.000000" stroke="none" 
	d="
M365.757812,125.062439 
	C355.711792,125.514366 345.805511,125.510063 335.654877,125.820969 
	C334.747223,125.747261 334.083923,125.358337 332.801178,124.606216 
	C344.331360,124.606216 355.114441,124.606216 365.757812,125.062439 
z"/>
<path fill="#BDE4FB" opacity="1.000000" stroke="none" 
	d="
M336.734039,372.897949 
	C345.677917,372.896912 354.368225,372.947754 363.526825,373.011414 
	C363.189789,373.349945 362.386383,373.953461 361.578918,373.958954 
	C352.369720,374.021667 343.159241,374.041870 333.951477,373.908264 
	C333.099762,373.895905 332.264435,372.751068 331.942841,372.401337 
	C333.633881,372.729095 334.803589,372.787598 335.973297,372.846069 
	C336.142365,372.880676 336.311432,372.915283 336.734039,372.897949 
z"/>
<path fill="#7CAED0" opacity="1.000000" stroke="none" 
	d="
M282.902832,125.087624 
	C273.997406,124.973778 265.091949,124.859940 255.824188,124.464020 
	C265.047119,124.123009 274.632416,124.027054 284.217560,124.044510 
	C285.679413,124.047165 288.394409,123.334709 286.280426,126.481369 
	C284.800018,125.918312 283.851410,125.502968 282.902832,125.087624 
z"/>
<path fill="#80BDE1" opacity="1.000000" stroke="none" 
	d="
M16.707996,410.153381 
	C18.358192,410.667755 19.603437,411.860718 20.883028,411.898773 
	C26.862936,412.076599 32.852322,411.935944 39.284424,411.846863 
	C39.035545,412.190674 38.345585,412.938995 37.644791,412.949280 
	C31.358543,413.041534 25.069647,412.949646 18.783215,413.035339 
	C16.723324,413.063416 15.542857,412.656647 16.707996,410.153381 
z"/>
<path fill="#2F7DAE" opacity="1.000000" stroke="none" 
	d="
M282.887329,125.442398 
	C283.851410,125.502968 284.800018,125.918312 285.957397,126.697678 
	C284.002991,129.322388 281.839752,131.583084 279.363281,133.957748 
	C280.323975,131.313538 281.597900,128.555344 282.887329,125.442398 
z"/>
<path fill="#1B70A6" opacity="1.000000" stroke="none" 
	d="
M335.924866,372.570496 
	C334.803589,372.787598 333.633881,372.729095 332.370056,372.329163 
	C333.754974,370.288269 335.233978,368.588806 336.961548,366.703094 
	C336.765533,368.442841 336.320984,370.368896 335.924866,372.570496 
z"/>
<path fill="#2F7DAE" opacity="1.000000" stroke="none" 
	d="
M221.329926,192.893082 
	C222.461517,191.372116 223.892426,189.723892 225.689331,188.037079 
	C224.580002,189.587601 223.104630,191.176712 221.329926,192.893082 
z"/>
<path fill="#2F7DAE" opacity="1.000000" stroke="none" 
	d="
M253.357910,159.820770 
	C254.146576,158.674942 255.224426,157.419525 256.640656,156.103806 
	C255.868378,157.266068 254.757751,158.488617 253.357910,159.820770 
z"/>
<path fill="#1B70A6" opacity="1.000000" stroke="none" 
	d="
M340.726685,362.982056 
	C340.073456,363.989716 339.135162,365.124817 337.847046,366.239655 
	C338.478668,365.182739 339.460175,364.146118 340.726685,362.982056 
z"/>
<path fill="#1B70A6" opacity="1.000000" stroke="none" 
	d="
M349.714417,353.858521 
	C349.468658,354.425537 348.967010,355.185181 348.190948,355.981812 
	C348.430542,355.362915 348.944550,354.707031 349.714417,353.858521 
z"/>
<path fill="#2F7DAE" opacity="1.000000" stroke="none" 
	d="
M257.325165,155.876205 
	C257.551208,155.396072 258.053955,154.816086 258.821289,154.100952 
	C258.591217,154.569321 258.096527,155.172836 257.325165,155.876205 
z"/>
<path fill="#2F7DAE" opacity="1.000000" stroke="none" 
	d="
M227.257187,186.908356 
	C227.511673,186.404282 228.057571,185.784714 228.901672,185.045197 
	C228.649445,185.547775 228.099014,186.170319 227.257187,186.908356 
z"/>
<path fill="#2F7DAE" opacity="1.000000" stroke="none" 
	d="
M226.236450,187.970993 
	C226.193054,187.800827 226.407562,187.542343 226.818298,187.124329 
	C226.841141,187.270767 226.667740,187.576721 226.236450,187.970993 
z"/>
</svg>