<?xml version="1.0" encoding="UTF-8"?>
<svg xmlns="http://www.w3.org/2000/svg" xmlns:xlink="http://www.w3.org/1999/xlink" width="px" height="0px" viewBox="0 0 18 18" version="1.1">
<g id="surface1">
<path style=" stroke:none;fill-rule:nonzero;fill:rgb(0%,0%,0%);fill-opacity:1;" d="M 9 0.222656 C 4.027344 0.222656 0 4.253906 0 9.222656 C 0 13.199219 2.578125 16.574219 6.152344 17.761719 C 6.605469 17.847656 6.769531 17.566406 6.769531 17.328125 C 6.769531 17.113281 6.761719 16.546875 6.757812 15.796875 C 4.253906 16.339844 3.726562 14.589844 3.726562 14.589844 C 3.316406 13.550781 2.726562 13.273438 2.726562 13.273438 C 1.910156 12.71875 2.789062 12.726562 2.789062 12.726562 C 3.691406 12.792969 4.167969 13.65625 4.167969 13.65625 C 4.96875 15.03125 6.273438 14.632812 6.789062 14.402344 C 6.867188 13.820312 7.101562 13.425781 7.359375 13.199219 C 5.359375 12.976562 3.257812 12.199219 3.257812 8.753906 C 3.257812 7.769531 3.605469 6.96875 4.183594 6.335938 C 4.082031 6.109375 3.777344 5.195312 4.261719 3.957031 C 4.261719 3.957031 5.015625 3.714844 6.738281 4.878906 C 7.457031 4.679688 8.222656 4.578125 8.988281 4.574219 C 9.753906 4.578125 10.519531 4.679688 11.238281 4.878906 C 12.949219 3.714844 13.703125 3.957031 13.703125 3.957031 C 14.183594 5.195312 13.882812 6.109375 13.792969 6.335938 C 14.367188 6.96875 14.714844 7.769531 14.714844 8.753906 C 14.714844 12.210938 12.609375 12.972656 10.609375 13.191406 C 10.921875 13.460938 11.214844 14.015625 11.214844 14.859375 C 11.214844 16.0625 11.203125 17.03125 11.203125 17.320312 C 11.203125 17.558594 11.363281 17.839844 11.824219 17.75 C 15.421875 16.570312 18 13.195312 18 9.222656 C 18 4.253906 13.96875 0.222656 9 0.222656 "/>
</g>
</svg>
