<?xml version="1.0" encoding="UTF-8"?>
<svg xmlns="http://www.w3.org/2000/svg" xmlns:xlink="http://www.w3.org/1999/xlink" width="px" height="0px" viewBox="0 0 90 90" version="1.1">
<g id="surface1">
<path style=" stroke:none;fill-rule:nonzero;fill:rgb(73.72549%,73.333333%,73.333333%);fill-opacity:1;" d="M 63.300781 70.351562 L 63.300781 52.949219 L 69.074219 52.949219 L 69.074219 76.125 L 16.949219 76.125 L 16.949219 52.949219 L 22.726562 52.949219 L 22.726562 70.351562 Z M 63.300781 70.351562 "/>
<path style=" stroke:none;fill-rule:nonzero;fill:rgb(95.686275%,50.196078%,13.72549%);fill-opacity:1;" d="M 29.101562 51.300781 L 57.449219 57.226562 L 58.648438 51.523438 L 30.300781 45.601562 Z M 32.851562 37.800781 L 59.101562 50.023438 L 61.5 44.773438 L 35.25 32.476562 Z M 40.125 24.898438 L 62.398438 43.425781 L 66.074219 39 L 43.800781 20.476562 Z M 54.523438 11.175781 L 49.875 14.625 L 67.125 37.875 L 71.773438 34.425781 Z M 28.5 64.5 L 57.449219 64.5 L 57.449219 58.726562 L 28.5 58.726562 Z M 28.5 64.5 "/>
</g>
</svg>
